<svg width="420" height="129" viewBox="0 0 420 129" fill="none" xmlns="http://www.w3.org/2000/svg">
<path d="M103.915 45.7271H18.6449C16.8584 45.7271 15.3995 47.2424 15.5634 49.0311C17.4357 70.2769 37.189 87.0001 61.2799 87.0001C85.3709 87.0001 105.124 70.2847 106.997 49.0311C107.153 47.2424 105.701 45.7271 103.915 45.7271Z" fill="#FF6633"/>
<path fill-rule="evenodd" clip-rule="evenodd" d="M7.61175 9.05716C11.8601 3.47602 19.5162 0 27.9516 0C36.387 0 44.0431 3.47602 48.2914 9.05716C49.2942 10.3745 49.0374 12.2539 47.7179 13.2549C46.3984 14.256 44.5159 13.9996 43.5132 12.6823C40.5999 8.85516 34.8691 5.99149 27.9516 5.99149C21.0341 5.99149 15.3032 8.85516 12.39 12.6823C11.3873 13.9996 9.50478 14.256 8.1853 13.2549C6.86581 12.2539 6.60903 10.3745 7.61175 9.05716Z" fill="#414141"/>
<path fill-rule="evenodd" clip-rule="evenodd" d="M74.2953 9.05716C78.5437 3.47602 86.1998 0 94.6352 0C103.064 0 110.718 3.47685 114.973 9.05466C115.977 10.3709 115.722 12.2506 114.404 13.253C113.086 14.2554 111.203 14.0011 110.199 12.6848C107.277 8.85433 101.543 5.99149 94.6352 5.99149C87.7177 5.99149 81.9868 8.85516 79.0736 12.6823C78.0709 13.9996 76.1884 14.256 74.8689 13.2549C73.5494 12.2539 73.2926 10.3745 74.2953 9.05716Z" fill="#414141"/>
<path d="M164.464 49.5317C163.907 49.9432 163.241 50.2654 162.486 50.5338C161.731 50.8022 161.048 50.9275 160.418 50.9275C158.386 50.9275 156.642 50.2296 155.221 48.8517C153.801 47.4559 153.099 45.7559 153.099 43.7517C153.099 41.7296 153.801 40.0296 155.221 38.6338C156.642 37.2201 158.386 36.5222 160.418 36.5222C161.048 36.5222 161.749 36.6654 162.522 36.9338C163.295 37.2022 163.961 37.5601 164.554 38.0075C165.058 38.3654 165.633 38.3117 165.903 37.9359L168.636 33.9454C168.87 33.6054 168.762 33.0685 168.33 32.7643C167.27 31.9948 165.993 31.3685 164.5 30.8854C163.008 30.3843 161.641 30.1338 160.418 30.1338C158.512 30.1338 156.696 30.4917 154.988 31.2075C153.279 31.9054 151.823 32.8717 150.582 34.0885C149.359 35.2875 148.388 36.7369 147.669 38.419C146.949 40.1012 146.59 41.8727 146.59 43.7517C146.59 45.6306 146.949 47.4022 147.669 49.0843C148.388 50.7664 149.359 52.2159 150.582 53.4148C151.823 54.6138 153.279 55.5801 154.988 56.2959C156.696 56.9938 158.512 57.3517 160.418 57.3517C161.677 57.3517 163.044 57.119 164.518 56.6359C166.011 56.1527 167.234 55.5443 168.205 54.8106C168.654 54.5064 168.852 53.9696 168.636 53.6296L165.957 49.5854C165.669 49.1738 165.022 49.1559 164.464 49.5317Z" fill="#414141"/>
<path d="M171.999 55.8485C171.999 56.439 172.359 56.779 172.952 56.779H190.215C190.808 56.779 191.186 56.4211 191.186 55.8485V51.9832C191.186 51.2496 190.683 50.7664 189.873 50.7664H178.455V46.3106H187.122C187.769 46.3106 188.165 45.9527 188.165 45.3622V41.9622C188.165 41.3359 187.769 40.978 187.122 40.978H178.455V36.6475H189.873C190.503 36.6475 190.826 36.3254 190.826 35.699V31.5833C190.826 30.9927 190.467 30.6348 189.873 30.6348H172.952C172.359 30.6348 171.999 30.9927 171.999 31.5833V55.8485Z" fill="#414141"/>
<path d="M211.254 42.9285C212.747 41.9443 213.682 40.1012 213.682 38.1864C213.682 35.8064 212.909 33.9454 211.38 32.6212C209.852 31.2969 207.712 30.6348 204.943 30.6348H195.502C195.034 30.6348 194.8 30.8675 194.8 31.3148V56.099C194.8 56.5464 195.034 56.779 195.502 56.779H205.698C208.593 56.779 210.841 56.0811 212.441 54.7032C214.06 53.3254 214.869 51.3927 214.869 48.9054C214.869 47.599 214.545 46.4001 213.898 45.3085C213.25 44.2169 212.369 43.4296 211.254 42.9285ZM204.871 36.4506C206.291 36.4506 207.172 37.2917 207.172 38.6517C207.172 40.0117 206.291 40.8706 204.871 40.8706H201.328V36.4506H204.871ZM201.328 50.9632V45.7201H205.608C207.28 45.7201 208.341 46.7043 208.341 48.2969C208.341 49.9254 207.28 50.9632 205.608 50.9632H201.328Z" fill="#414141"/>
<path d="M218.106 55.8485C218.106 56.439 218.465 56.779 219.059 56.779H236.322C236.915 56.779 237.293 56.4211 237.293 55.8485V51.9832C237.293 51.2496 236.789 50.7664 235.98 50.7664H224.561V46.3106H233.229C233.876 46.3106 234.272 45.9527 234.272 45.3622V41.9622C234.272 41.3359 233.876 40.978 233.229 40.978H224.561V36.6475H235.98C236.609 36.6475 236.933 36.3254 236.933 35.699V31.5833C236.933 30.9927 236.573 30.6348 235.98 30.6348H219.059C218.465 30.6348 218.106 30.9927 218.106 31.5833V55.8485Z" fill="#414141"/>
<path d="M246.5 30.6348H244.162H241.842C241.285 30.6348 240.907 31.0464 240.907 31.6012V55.8485C240.907 56.439 241.249 56.7969 241.842 56.7969H246.446C247.075 56.7969 247.435 56.439 247.435 55.8485V48.7264H250.582C253.387 48.7264 255.653 47.9033 257.397 46.2748C259.141 44.6285 260.022 42.4454 260.022 39.7254C260.022 36.9696 259.141 34.7685 257.397 33.1222C255.653 31.458 253.387 30.6348 250.582 30.6348H246.5ZM247.435 42.839V36.5222H250.312C251.229 36.5222 252.002 36.8264 252.596 37.4348C253.207 38.0254 253.513 38.7769 253.513 39.6896C253.513 40.6022 253.207 41.3538 252.596 41.9443C252.002 42.5348 251.229 42.839 250.312 42.839H247.435Z" fill="#414141"/>
<path d="M279.767 30.6348H271.729C268.924 30.6348 266.64 31.458 264.896 33.1222C263.151 34.7685 262.288 36.9696 262.288 39.7075C262.288 42.9822 263.781 45.6843 266.352 47.2054L261.749 55.7053C261.461 56.2243 261.785 56.7969 262.36 56.7969H267.737C268.258 56.7969 268.492 56.618 268.834 55.9917L272.682 48.619H275.361V55.8485C275.361 56.439 275.721 56.7969 276.35 56.7969H280.954C281.547 56.7969 281.889 56.439 281.889 55.8485V31.5833C281.889 31.0285 281.511 30.6348 280.954 30.6348H279.767ZM271.999 43.018C271.082 43.018 270.308 42.6959 269.697 42.0517C269.103 41.3896 268.798 40.6022 268.798 39.6717C268.798 38.7412 269.103 37.9896 269.697 37.399C270.29 36.8085 271.064 36.5043 271.999 36.5043H275.361V43.018H271.999Z" fill="#414141"/>
<path d="M303.27 30.6348C302.82 30.6348 302.587 30.8675 302.587 31.3327V40.3696H292.75V31.3327C292.75 30.8675 292.516 30.6348 292.067 30.6348H286.996C286.528 30.6348 286.295 30.8675 286.295 31.3327V56.099C286.295 56.5643 286.528 56.7969 286.996 56.7969H292.067C292.516 56.7969 292.75 56.5643 292.75 56.099V46.2569H302.587V56.099C302.587 56.5643 302.82 56.7969 303.27 56.7969H308.359C308.808 56.7969 309.042 56.5643 309.042 56.099V31.3327C309.042 30.8675 308.808 30.6348 308.359 30.6348H303.27Z" fill="#414141"/>
<path d="M312.243 43.7696C312.243 45.6306 312.603 47.4022 313.304 49.0843C314.023 50.7485 314.994 52.198 316.199 53.3969C317.422 54.5959 318.879 55.5622 320.569 56.278C322.259 56.9759 324.04 57.3338 325.928 57.3338C328.445 57.3338 330.747 56.7432 332.833 55.5443C334.937 54.3454 336.573 52.699 337.778 50.6232C338.983 48.5475 339.594 46.2569 339.594 43.7696C339.594 41.8906 339.235 40.119 338.515 38.4369C337.814 36.7369 336.843 35.2875 335.62 34.0885C334.415 32.8896 332.959 31.9233 331.268 31.2254C329.596 30.5096 327.816 30.1517 325.928 30.1517C324.04 30.1517 322.259 30.5096 320.569 31.2254C318.879 31.9233 317.422 32.8896 316.199 34.0885C314.994 35.2875 314.023 36.7369 313.304 38.4369C312.603 40.119 312.243 41.8906 312.243 43.7696ZM318.753 43.7696C318.753 41.7654 319.454 40.0833 320.839 38.7054C322.223 37.3275 323.932 36.6296 325.928 36.6296C327.924 36.6296 329.614 37.3275 330.999 38.7054C332.383 40.0833 333.085 41.7654 333.085 43.7696C333.085 45.7559 332.383 47.4201 330.999 48.798C329.614 50.1759 327.924 50.8559 325.928 50.8559C323.914 50.8559 322.205 50.1759 320.821 48.798C319.436 47.4201 318.753 45.7559 318.753 43.7696Z" fill="#414141"/>
<path d="M358.332 30.6169C357.828 30.6169 357.415 31.0643 357.415 31.5833V38.9559C357.415 40.298 356.983 41.3717 356.138 42.1769C355.293 42.9822 354.178 43.3938 352.757 43.3938C349.934 43.3938 348.262 41.7296 348.262 38.9201V31.5833C348.262 31.0285 347.83 30.6169 347.255 30.6169H342.633C342.148 30.6169 341.752 31.0643 341.752 31.5833V38.938C341.752 42.1948 342.723 44.8075 344.665 46.7759C346.607 48.7264 349.125 49.7106 352.218 49.7106C354.232 49.7106 356.12 48.9054 357.415 47.6706V55.8485C357.415 56.3675 357.81 56.779 358.332 56.779H362.989C363.511 56.779 363.924 56.3496 363.924 55.8306V31.5833C363.924 31.0285 363.547 30.6169 363.043 30.6169H358.332Z" fill="#414141"/>
<path d="M383.903 42.9643L392.265 31.8696C392.696 31.2969 392.516 30.6885 391.851 30.6885H385.935C385.305 30.6885 384.964 30.7601 384.55 31.3148L377.735 40.4233H374.84V31.3327C374.84 30.8854 374.606 30.6527 374.156 30.6527H369.031C368.564 30.6527 368.33 30.8854 368.33 31.3327V56.0811C368.33 56.5464 368.564 56.779 369.031 56.779H374.156C374.606 56.779 374.84 56.5464 374.84 56.0811V46.5433H378.544L385.161 56.4211C385.395 56.6896 385.719 56.8327 386.097 56.8327H392.067C392.696 56.8327 392.858 56.2064 392.498 55.6875L383.903 42.9643Z" fill="#414141"/>
<path d="M409.653 31.4938C409.456 30.9748 408.97 30.6169 408.467 30.6169H404.672C404.169 30.6169 403.683 30.9391 403.45 31.4938L393.847 55.7411C393.613 56.3675 393.883 56.7969 394.548 56.7969H399.637C400.195 56.7969 400.662 56.439 400.806 55.938L401.975 52.5201H411.092L412.279 55.9559C412.477 56.4569 412.926 56.8148 413.43 56.8148H418.537C419.238 56.8148 419.472 56.3496 419.238 55.759L409.653 31.4938ZM406.525 39.1885L409.24 47.1159H403.809L406.525 39.1885Z" fill="#414141"/>
</svg>
